<svg width="853" height="325" viewBox="0 0 853 325" fill="none" xmlns="http://www.w3.org/2000/svg">
<path d="M292 251V73.5H330L406.5 207V73.5H439V251H400L324.5 121.25V251H292ZM521.82 254C508.487 254 496.904 251.167 487.07 245.5C477.237 239.667 469.654 231.5 464.32 221C458.987 210.5 456.32 198.25 456.32 184.25C456.32 170.25 458.987 158.083 464.32 147.75C469.654 137.25 477.154 129.083 486.82 123.25C496.654 117.417 508.07 114.5 521.07 114.5C533.737 114.5 544.82 117.333 554.32 123C563.987 128.667 571.404 136.833 576.57 147.5C581.737 158.167 584.32 171 584.32 186V193.25H489.57C490.237 204.917 493.404 213.75 499.07 219.75C504.904 225.583 512.57 228.5 522.07 228.5C529.237 228.5 535.154 226.917 539.82 223.75C544.654 220.417 547.987 215.833 549.82 210L582.57 212C578.904 225 571.654 235.25 560.82 242.75C550.154 250.25 537.154 254 521.82 254ZM489.57 171.75H551.32C550.654 160.917 547.57 152.917 542.07 147.75C536.57 142.417 529.57 139.75 521.07 139.75C512.57 139.75 505.487 142.5 499.82 148C494.32 153.5 490.904 161.417 489.57 171.75ZM581.127 251L629.127 183L582.877 117.5H617.627L648.127 163L678.127 117.5H713.377L667.377 183.25L715.127 251H680.377L648.627 203L616.627 251H581.127ZM777.461 254C764.294 254 752.711 251.167 742.711 245.5C732.878 239.667 725.211 231.5 719.711 221C714.378 210.5 711.711 198.25 711.711 184.25C711.711 170.083 714.378 157.833 719.711 147.5C725.211 137 732.878 128.917 742.711 123.25C752.711 117.417 764.294 114.5 777.461 114.5C790.628 114.5 802.128 117.417 811.961 123.25C821.794 128.917 829.378 137 834.711 147.5C840.211 157.833 842.961 170.083 842.961 184.25C842.961 198.25 840.211 210.5 834.711 221C829.378 231.5 821.794 239.667 811.961 245.5C802.128 251.167 790.628 254 777.461 254ZM777.461 228C787.794 228 795.711 224.167 801.211 216.5C806.878 208.833 809.711 198.083 809.711 184.25C809.711 170.583 806.878 159.917 801.211 152.25C795.711 144.417 787.794 140.5 777.461 140.5C767.128 140.5 759.128 144.417 753.461 152.25C747.794 159.917 744.961 170.583 744.961 184.25C744.961 198.083 747.794 208.833 753.461 216.5C759.128 224.167 767.128 228 777.461 228Z" fill="#F9F9F9"/>
<path d="M57.9541 127.645C61.8687 128.172 65.4029 129.329 68.2425 132.169C71.0827 135.009 72.2406 138.543 72.7668 142.458C73.2656 146.166 73.265 150.838 73.265 156.44V175.471C73.265 181.481 73.275 185.519 73.6797 188.531C74.0669 191.409 74.7353 192.64 75.5478 193.452C76.3602 194.265 77.5917 194.933 80.4693 195.321C83.4809 195.725 87.5189 195.735 93.5297 195.735H112.56C118.162 195.735 122.834 195.735 126.542 196.233C130.457 196.76 133.991 197.918 136.831 200.758C139.671 203.597 140.829 207.131 141.355 211.046C141.854 214.755 141.853 219.426 141.853 225.029V231.912C141.853 237.515 141.854 242.186 141.355 245.895C140.829 249.81 139.671 253.344 136.831 256.183C133.991 259.023 130.457 260.181 126.542 260.708C122.834 261.206 118.162 261.206 112.56 261.206H49.5405C41.0132 261.206 34.1399 261.206 28.7341 260.479C23.1217 259.725 18.3961 258.111 14.643 254.358C10.8899 250.604 9.27557 245.879 8.52104 240.266C7.79419 234.86 7.79432 227.987 7.79444 219.46V156.44C7.79425 150.838 7.79413 146.166 8.2927 142.458C8.81902 138.543 9.97673 135.009 12.8167 132.169C15.6567 129.329 19.1909 128.172 23.1053 127.645C26.814 127.147 31.4854 127.147 37.0877 127.147H43.9716C49.5738 127.147 54.2456 127.147 57.9541 127.645Z" fill="#F9F9F9"/>
<path d="M154.649 196.882C150.775 196.362 147.278 195.216 144.468 192.406C141.657 189.595 140.511 186.098 139.991 182.224C139.497 178.554 139.498 173.931 139.498 168.387V149.555C139.498 143.607 139.488 139.611 139.087 136.631C138.704 133.783 138.043 132.565 137.239 131.761C136.435 130.957 135.216 130.295 132.368 129.912C129.388 129.512 125.392 129.502 119.444 129.502H100.612C95.068 129.502 90.4451 129.502 86.775 129.009C82.9013 128.488 79.4039 127.342 76.594 124.531C73.7834 121.722 72.6375 118.224 72.1168 114.35C71.6231 110.68 71.6237 106.057 71.6237 100.513V93.7014C71.6237 88.1573 71.6231 83.5345 72.1168 79.8644C72.6375 75.9906 73.7834 72.4933 76.594 69.6833C79.4039 66.8727 82.9013 65.7269 86.775 65.2061C90.4451 64.7125 95.068 64.7131 100.612 64.7131H162.975C171.413 64.7131 178.215 64.7131 183.565 65.432C189.119 66.1786 193.795 67.7761 197.509 71.49C201.223 75.2045 202.82 79.8804 203.567 85.4343C204.286 90.784 204.286 97.5856 204.286 106.024V168.387C204.286 173.931 204.286 178.554 203.793 182.224C203.272 186.098 202.127 189.595 199.316 192.406C196.506 195.216 193.008 196.362 189.135 196.882C185.465 197.376 180.842 197.376 175.298 197.375H168.486C162.942 197.376 158.319 197.376 154.649 196.882Z" fill="#F9F9F9"/>
</svg>
